<?xml version="1.0" encoding="utf-8"?>
<!-- Generator: Adobe Illustrator 19.2.1, SVG Export Plug-In . SVG Version: 6.00 Build 0)  -->
<svg version="1.1" id="Layer_1" xmlns="http://www.w3.org/2000/svg" xmlns:xlink="http://www.w3.org/1999/xlink" x="0px" y="0px"
	 viewBox="0 0 257.1 167.1" style="enable-background:new 0 0 257.1 167.1;" xml:space="preserve">
<style type="text/css">
	.st0{stroke:#000000;stroke-width:5;stroke-miterlimit:10;}
</style>
<g>
	<path class="st0" d="M32,67.1V46.5L16.7,18.6h7.1L30.6,32c1.9,3.7,3.3,6.6,4.8,10h0.1c1.4-3.2,3-6.3,4.9-10l7-13.4h7.1L38.3,46.5
		v20.7H32z"/>
	<path class="st0" d="M85.3,57.6c0,3.6,0.1,6.8,0.3,9.5h-5.6l-0.4-5.7h-0.1c-1.7,2.8-5.3,6.5-11.5,6.5c-5.5,0-12-3-12-15.3V32.3h6.3
		v19.3c0,6.6,2,11.1,7.8,11.1c4.2,0,7.2-3,8.4-5.8c0.4-0.9,0.6-2.1,0.6-3.2V32.3h6.3V57.6z"/>
	<path class="st0" d="M99.3,50.9c0.1,8.6,5.6,12.1,12,12.1c4.5,0,7.3-0.8,9.6-1.8l1.1,4.5c-2.2,1-6,2.2-11.6,2.2
		c-10.7,0-17.1-7.1-17.1-17.6c0-10.5,6.2-18.8,16.3-18.8c11.4,0,14.4,10,14.4,16.4c0,1.3-0.1,2.3-0.2,3H99.3z M117.9,46.3
		c0.1-4-1.7-10.3-8.8-10.3c-6.4,0-9.2,5.9-9.7,10.3H117.9z"/>
	<path class="st0" d="M131.8,16h6.3v51.1h-6.3V16z"/>
	<path class="st0" d="M155.9,22.5c0.1,2.2-1.5,3.9-4,3.9c-2.2,0-3.8-1.7-3.8-3.9c0-2.2,1.7-4,4-4C154.4,18.5,155.9,20.3,155.9,22.5z
		 M148.8,67.1V32.3h6.3v34.9H148.8z"/>
	<path class="st0" d="M165.7,41.7c0-3.6-0.1-6.6-0.3-9.4h5.6l0.4,5.8h0.1c1.7-3.3,5.8-6.6,11.5-6.6c4.8,0,12.3,2.9,12.3,14.8v20.8
		H189V47.1c0-5.6-2.1-10.3-8.1-10.3c-4.2,0-7.4,3-8.5,6.5c-0.3,0.8-0.4,1.9-0.4,3v21h-6.3V41.7z"/>
	<path class="st0" d="M235.7,32.3c-0.1,2.5-0.3,5.3-0.3,9.6v20.2c0,8-1.6,12.9-5,15.9c-3.4,3.2-8.3,4.2-12.7,4.2
		c-4.2,0-8.8-1-11.6-2.9l1.6-4.8c2.3,1.4,5.9,2.7,10.2,2.7c6.5,0,11.2-3.4,11.2-12.2v-3.9H229c-1.9,3.2-5.7,5.8-11.1,5.8
		c-8.6,0-14.8-7.3-14.8-17c0-11.8,7.7-18.5,15.7-18.5c6,0,9.4,3.2,10.9,6h0.1l0.3-5.3H235.7z M229.1,46c0-1.1-0.1-2-0.4-2.9
		c-1.2-3.7-4.2-6.7-8.9-6.7c-6,0-10.4,5.1-10.4,13.2c0,6.8,3.5,12.5,10.3,12.5c3.9,0,7.4-2.4,8.8-6.5c0.4-1.1,0.5-2.3,0.5-3.4V46z"
		/>
	<path class="st0" d="M61.2,160.7c-6.6-1.7-13-3.7-18.6-5.6c-1-0.4-2-0.7-3-0.7c-11.5-0.4-21.4-8.9-21.4-24.6
		c0-15.6,9.5-25.6,22.6-25.6c13.2,0,21.7,10.2,21.7,24.6c0,12.5-5.8,20.4-13.8,23.3v0.3c4.8,1.2,10.1,2.4,14.2,3.1L61.2,160.7z
		 M56,129.1c0-9.7-5-19.7-15.3-19.7c-10.6,0-15.8,9.8-15.7,20.3c-0.1,10.3,5.6,19.6,15.4,19.6C50.4,149.2,56,140.2,56,129.1z"/>
	<path class="st0" d="M77.6,108.9c0.1,2.2-1.5,3.9-4,3.9c-2.2,0-3.8-1.7-3.8-3.9c0-2.2,1.7-4,4-4C76.1,104.9,77.6,106.7,77.6,108.9z
		 M70.6,153.5v-34.9h6.3v34.9H70.6z"/>
	<path class="st0" d="M87.4,128.1c0-3.6-0.1-6.6-0.3-9.4h5.6l0.4,5.8h0.1c1.7-3.3,5.8-6.6,11.5-6.6c4.8,0,12.3,2.9,12.3,14.8v20.8
		h-6.3v-20.1c0-5.6-2.1-10.3-8.1-10.3c-4.2,0-7.4,3-8.5,6.5c-0.3,0.8-0.4,1.9-0.4,3v21h-6.3V128.1z"/>
</g>
</svg>
